<svg width="362" height="66" viewBox="0 0 362 66" fill="none" xmlns="http://www.w3.org/2000/svg">
<rect x="0.5" y="0.5" width="361" height="65" rx="8.5" fill="url(#paint0_linear_16_60)"/>
<rect x="0.5" y="0.5" width="361" height="65" rx="8.5" stroke="url(#paint1_linear_16_60)"/>
<path d="M61.26 42V27.648H56.052V25.2H69.348V27.648H64.14V42H61.26ZM75.2186 42.216C74.3706 42.216 73.6186 42.064 72.9626 41.76C72.3066 41.44 71.7946 41.008 71.4266 40.464C71.0746 39.92 70.8986 39.288 70.8986 38.568C70.8986 37.832 71.0826 37.2 71.4506 36.672C71.8346 36.144 72.3706 35.736 73.0586 35.448C73.7626 35.16 74.5946 35.016 75.5546 35.016C76.1306 35.016 76.6906 35.08 77.2346 35.208C77.7786 35.32 78.3226 35.512 78.8666 35.784V34.584C78.8666 33.736 78.6346 33.104 78.1706 32.688C77.7066 32.256 76.9946 32.04 76.0346 32.04C75.5066 32.04 74.9466 32.12 74.3546 32.28C73.7786 32.44 73.1306 32.704 72.4106 33.072L71.3786 31.104C72.3226 30.64 73.2106 30.304 74.0426 30.096C74.8906 29.888 75.7306 29.784 76.5626 29.784C78.1466 29.784 79.3706 30.176 80.2346 30.96C81.1146 31.744 81.5546 32.856 81.5546 34.296V42H78.8666V40.728C78.3226 41.24 77.7546 41.616 77.1626 41.856C76.5706 42.096 75.9226 42.216 75.2186 42.216ZM73.4426 38.496C73.4426 39.056 73.6666 39.504 74.1146 39.84C74.5786 40.16 75.1946 40.32 75.9626 40.32C76.5226 40.32 77.0426 40.232 77.5226 40.056C78.0026 39.88 78.4506 39.616 78.8666 39.264V37.368C78.4346 37.16 77.9866 37.008 77.5226 36.912C77.0586 36.816 76.5626 36.768 76.0346 36.768C75.2346 36.768 74.6026 36.928 74.1386 37.248C73.6746 37.552 73.4426 37.968 73.4426 38.496ZM85.1453 47.016V29.976H87.7853V31.44C88.2173 30.912 88.7213 30.512 89.2973 30.24C89.8733 29.952 90.5133 29.808 91.2173 29.808C92.2253 29.808 93.1373 30.088 93.9533 30.648C94.7853 31.192 95.4413 31.928 95.9213 32.856C96.4173 33.784 96.6653 34.832 96.6653 36C96.6653 37.152 96.4173 38.2 95.9213 39.144C95.4253 40.072 94.7613 40.808 93.9293 41.352C93.1133 41.896 92.1933 42.168 91.1693 42.168C90.5133 42.168 89.9053 42.048 89.3453 41.808C88.7853 41.552 88.2893 41.192 87.8573 40.728V47.016H85.1453ZM90.5693 39.96C91.2413 39.96 91.8333 39.792 92.3453 39.456C92.8573 39.12 93.2573 38.656 93.5453 38.064C93.8333 37.456 93.9773 36.768 93.9773 36C93.9773 35.232 93.8333 34.552 93.5453 33.96C93.2573 33.368 92.8573 32.904 92.3453 32.568C91.8333 32.216 91.2413 32.04 90.5693 32.04C90.0253 32.04 89.5213 32.152 89.0573 32.376C88.5933 32.584 88.1933 32.888 87.8573 33.288V38.712C88.1933 39.112 88.5933 39.424 89.0573 39.648C89.5373 39.856 90.0413 39.96 90.5693 39.96ZM113.087 42V24.792L115.799 24.312V31.776C116.727 30.448 117.959 29.784 119.495 29.784C120.327 29.784 121.055 29.968 121.679 30.336C122.303 30.688 122.791 31.192 123.143 31.848C123.511 32.488 123.695 33.232 123.695 34.08V42H120.959V34.848C120.959 33.968 120.719 33.272 120.239 32.76C119.759 32.232 119.119 31.968 118.319 31.968C117.807 31.968 117.335 32.08 116.903 32.304C116.471 32.528 116.103 32.856 115.799 33.288V42H113.087ZM132.565 42.24C131.397 42.24 130.341 41.968 129.397 41.424C128.453 40.864 127.701 40.112 127.141 39.168C126.597 38.224 126.325 37.168 126.325 36C126.325 34.816 126.581 33.76 127.093 32.832C127.621 31.904 128.333 31.168 129.229 30.624C130.141 30.064 131.157 29.784 132.277 29.784C133.445 29.784 134.477 30.056 135.373 30.6C136.285 31.144 136.997 31.88 137.509 32.808C138.037 33.736 138.301 34.8 138.301 36V36.648H128.989C129.069 37.304 129.277 37.888 129.613 38.4C129.965 38.896 130.405 39.288 130.933 39.576C131.477 39.864 132.069 40.008 132.709 40.008C133.333 40.008 133.909 39.888 134.437 39.648C134.981 39.408 135.429 39.072 135.781 38.64L137.581 40.248C136.893 40.936 136.133 41.44 135.301 41.76C134.469 42.08 133.557 42.24 132.565 42.24ZM129.013 34.944H135.709C135.613 34.352 135.405 33.84 135.085 33.408C134.781 32.96 134.389 32.616 133.909 32.376C133.445 32.12 132.917 31.992 132.325 31.992C131.765 31.992 131.253 32.112 130.789 32.352C130.341 32.592 129.965 32.936 129.661 33.384C129.357 33.816 129.141 34.336 129.013 34.944ZM140.812 42V39.864H143.788V32.136H140.812V29.976H146.5V32.832C146.9 31.824 147.444 31.064 148.132 30.552C148.836 30.04 149.636 29.784 150.532 29.784C150.9 29.784 151.212 29.816 151.468 29.88C151.724 29.928 152.028 30.016 152.38 30.144V32.616C152.028 32.472 151.652 32.368 151.252 32.304C150.868 32.224 150.492 32.184 150.124 32.184C149.34 32.184 148.628 32.376 147.988 32.76C147.348 33.128 146.852 33.656 146.5 34.344V39.864H149.668V42H140.812ZM160.386 42.24C159.218 42.24 158.162 41.968 157.218 41.424C156.274 40.864 155.522 40.112 154.962 39.168C154.418 38.224 154.146 37.168 154.146 36C154.146 34.816 154.402 33.76 154.914 32.832C155.442 31.904 156.154 31.168 157.05 30.624C157.962 30.064 158.978 29.784 160.098 29.784C161.266 29.784 162.298 30.056 163.194 30.6C164.106 31.144 164.818 31.88 165.33 32.808C165.858 33.736 166.122 34.8 166.122 36V36.648H156.81C156.89 37.304 157.098 37.888 157.434 38.4C157.786 38.896 158.226 39.288 158.754 39.576C159.298 39.864 159.89 40.008 160.53 40.008C161.154 40.008 161.73 39.888 162.258 39.648C162.802 39.408 163.25 39.072 163.602 38.64L165.402 40.248C164.714 40.936 163.954 41.44 163.122 41.76C162.29 42.08 161.378 42.24 160.386 42.24ZM156.834 34.944H163.53C163.434 34.352 163.226 33.84 162.906 33.408C162.602 32.96 162.21 32.616 161.73 32.376C161.266 32.12 160.738 31.992 160.146 31.992C159.586 31.992 159.074 32.112 158.61 32.352C158.162 32.592 157.786 32.936 157.482 33.384C157.178 33.816 156.962 34.336 156.834 34.944ZM185.592 42V32.136H181.752V29.976H185.592V28.152C185.592 25.304 187.216 23.88 190.464 23.88C190.928 23.88 191.424 23.928 191.952 24.024C192.48 24.104 192.968 24.216 193.416 24.36V26.712C192.824 26.504 192.312 26.368 191.88 26.304C191.464 26.24 191.016 26.208 190.536 26.208C189.784 26.208 189.224 26.384 188.856 26.736C188.504 27.072 188.328 27.656 188.328 28.488V29.976H193.416V32.136H188.328V42H185.592ZM201.806 42.24C200.67 42.24 199.646 41.968 198.734 41.424C197.822 40.864 197.102 40.12 196.574 39.192C196.046 38.248 195.782 37.184 195.782 36C195.782 34.832 196.046 33.784 196.574 32.856C197.102 31.912 197.822 31.168 198.734 30.624C199.646 30.064 200.67 29.784 201.806 29.784C202.942 29.784 203.966 30.064 204.878 30.624C205.79 31.168 206.51 31.912 207.038 32.856C207.566 33.784 207.83 34.832 207.83 36C207.83 37.184 207.566 38.248 207.038 39.192C206.51 40.12 205.79 40.864 204.878 41.424C203.982 41.968 202.958 42.24 201.806 42.24ZM201.806 39.912C202.462 39.912 203.038 39.744 203.534 39.408C204.046 39.072 204.446 38.608 204.734 38.016C205.038 37.424 205.19 36.752 205.19 36C205.19 35.248 205.038 34.584 204.734 34.008C204.446 33.416 204.046 32.952 203.534 32.616C203.038 32.28 202.462 32.112 201.806 32.112C201.15 32.112 200.566 32.288 200.054 32.64C199.558 32.976 199.158 33.44 198.854 34.032C198.566 34.608 198.422 35.264 198.422 36C198.422 36.752 198.566 37.424 198.854 38.016C199.158 38.608 199.558 39.072 200.054 39.408C200.566 39.744 201.15 39.912 201.806 39.912ZM210.365 42V39.864H213.341V32.136H210.365V29.976H216.053V32.832C216.453 31.824 216.997 31.064 217.685 30.552C218.389 30.04 219.189 29.784 220.085 29.784C220.453 29.784 220.765 29.816 221.021 29.88C221.277 29.928 221.581 30.016 221.933 30.144V32.616C221.581 32.472 221.205 32.368 220.805 32.304C220.421 32.224 220.045 32.184 219.677 32.184C218.893 32.184 218.181 32.376 217.541 32.76C216.901 33.128 216.405 33.656 216.053 34.344V39.864H219.221V42H210.365ZM237.562 42V29.976H239.89V31.008C240.178 30.592 240.49 30.288 240.826 30.096C241.178 29.904 241.57 29.808 242.002 29.808C242.514 29.808 242.97 29.936 243.37 30.192C243.786 30.432 244.106 30.784 244.33 31.248C244.65 30.752 245.018 30.392 245.434 30.168C245.866 29.928 246.346 29.808 246.874 29.808C247.658 29.808 248.298 30.096 248.794 30.672C249.306 31.248 249.562 32 249.562 32.928V42H247.258V33.648C247.258 33.072 247.138 32.624 246.898 32.304C246.658 31.968 246.314 31.8 245.866 31.8C245.642 31.8 245.434 31.848 245.242 31.944C245.05 32.04 244.866 32.208 244.69 32.448C244.722 32.544 244.738 32.64 244.738 32.736C244.738 32.832 244.738 32.936 244.738 33.048V42H242.434V33.648C242.434 33.072 242.306 32.624 242.05 32.304C241.81 31.968 241.466 31.8 241.018 31.8C240.826 31.8 240.634 31.84 240.442 31.92C240.25 32 240.066 32.152 239.89 32.376V42H237.562ZM256.057 42.216C255.209 42.216 254.457 42.064 253.801 41.76C253.145 41.44 252.633 41.008 252.265 40.464C251.913 39.92 251.737 39.288 251.737 38.568C251.737 37.832 251.921 37.2 252.289 36.672C252.673 36.144 253.209 35.736 253.897 35.448C254.601 35.16 255.433 35.016 256.393 35.016C256.969 35.016 257.529 35.08 258.073 35.208C258.617 35.32 259.161 35.512 259.705 35.784V34.584C259.705 33.736 259.473 33.104 259.009 32.688C258.545 32.256 257.833 32.04 256.873 32.04C256.345 32.04 255.785 32.12 255.193 32.28C254.617 32.44 253.969 32.704 253.249 33.072L252.217 31.104C253.161 30.64 254.049 30.304 254.881 30.096C255.729 29.888 256.569 29.784 257.401 29.784C258.985 29.784 260.209 30.176 261.073 30.96C261.953 31.744 262.393 32.856 262.393 34.296V42H259.705V40.728C259.161 41.24 258.593 41.616 258.001 41.856C257.409 42.096 256.761 42.216 256.057 42.216ZM254.281 38.496C254.281 39.056 254.505 39.504 254.953 39.84C255.417 40.16 256.033 40.32 256.801 40.32C257.361 40.32 257.881 40.232 258.361 40.056C258.841 39.88 259.289 39.616 259.705 39.264V37.368C259.273 37.16 258.825 37.008 258.361 36.912C257.897 36.816 257.401 36.768 256.873 36.768C256.073 36.768 255.441 36.928 254.977 37.248C254.513 37.552 254.281 37.968 254.281 38.496ZM271.215 47.256C270.367 47.256 269.527 47.152 268.695 46.944C267.879 46.736 267.119 46.448 266.415 46.08L267.351 44.088C268.055 44.424 268.711 44.672 269.319 44.832C269.927 45.008 270.527 45.096 271.119 45.096C273.055 45.096 274.023 44.208 274.023 42.432V40.536C273.591 41.032 273.071 41.424 272.463 41.712C271.871 41.984 271.231 42.12 270.543 42.12C269.551 42.12 268.647 41.848 267.831 41.304C267.031 40.744 266.391 40 265.911 39.072C265.447 38.144 265.215 37.112 265.215 35.976C265.215 34.84 265.463 33.816 265.959 32.904C266.455 31.976 267.119 31.24 267.951 30.696C268.783 30.152 269.703 29.88 270.711 29.88C271.367 29.88 271.975 30.008 272.535 30.264C273.111 30.52 273.615 30.888 274.047 31.368V29.976H276.711V42.432C276.711 43.984 276.239 45.176 275.295 46.008C274.367 46.84 273.007 47.256 271.215 47.256ZM271.311 39.888C271.871 39.888 272.375 39.776 272.823 39.552C273.287 39.328 273.687 39.024 274.023 38.64V33.336C273.687 32.952 273.279 32.656 272.799 32.448C272.335 32.224 271.839 32.112 271.311 32.112C270.639 32.112 270.047 32.28 269.535 32.616C269.023 32.936 268.623 33.392 268.335 33.984C268.047 34.56 267.903 35.232 267.903 36C267.903 36.736 268.047 37.4 268.335 37.992C268.623 38.584 269.023 39.048 269.535 39.384C270.047 39.72 270.639 39.888 271.311 39.888ZM285.198 27.624C284.654 27.624 284.19 27.432 283.806 27.048C283.438 26.664 283.254 26.208 283.254 25.68C283.254 25.152 283.438 24.704 283.806 24.336C284.19 23.952 284.654 23.76 285.198 23.76C285.726 23.76 286.174 23.952 286.542 24.336C286.926 24.704 287.118 25.152 287.118 25.68C287.118 26.208 286.926 26.664 286.542 27.048C286.174 27.432 285.726 27.624 285.198 27.624ZM288.27 42.24C286.814 42.24 285.71 41.896 284.958 41.208C284.206 40.52 283.83 39.504 283.83 38.16V32.136H279.51V29.976H286.542V37.872C286.542 38.592 286.71 39.112 287.046 39.432C287.398 39.752 287.926 39.912 288.63 39.912C289.03 39.912 289.422 39.872 289.806 39.792C290.19 39.712 290.614 39.584 291.078 39.408V41.688C290.71 41.832 290.27 41.96 289.758 42.072C289.246 42.184 288.75 42.24 288.27 42.24ZM299.493 42.24C298.309 42.24 297.237 41.968 296.277 41.424C295.333 40.864 294.581 40.12 294.021 39.192C293.477 38.248 293.205 37.192 293.205 36.024C293.205 34.84 293.477 33.776 294.021 32.832C294.581 31.888 295.333 31.144 296.277 30.6C297.237 30.056 298.309 29.784 299.493 29.784C300.677 29.784 301.741 30.04 302.685 30.552C303.645 31.064 304.397 31.744 304.941 32.592L302.829 34.056C302.509 33.464 302.053 33 301.461 32.664C300.885 32.312 300.229 32.136 299.493 32.136C298.805 32.136 298.189 32.304 297.645 32.64C297.101 32.976 296.677 33.44 296.373 34.032C296.069 34.608 295.917 35.272 295.917 36.024C295.917 36.76 296.069 37.424 296.373 38.016C296.693 38.592 297.117 39.048 297.645 39.384C298.189 39.72 298.805 39.888 299.493 39.888C300.229 39.888 300.885 39.72 301.461 39.384C302.053 39.032 302.509 38.568 302.829 37.992L304.941 39.432C304.397 40.28 303.645 40.96 302.685 41.472C301.741 41.984 300.677 42.24 299.493 42.24Z" fill="#232323"/>
<defs>
<linearGradient id="paint0_linear_16_60" x1="1" y1="1" x2="256.111" y2="199.68" gradientUnits="userSpaceOnUse">
<stop stop-color="#6C38F2"/>
<stop offset="1" stop-color="#CFBDFF"/>
</linearGradient>
<linearGradient id="paint1_linear_16_60" x1="-69.6007" y1="-66" x2="368.024" y2="159.506" gradientUnits="userSpaceOnUse">
<stop stop-color="white" stop-opacity="0.8"/>
<stop offset="1" stop-color="#8E65F8"/>
</linearGradient>
</defs>
</svg>
