<svg width="193" height="26" viewBox="0 0 193 26" fill="none" xmlns="http://www.w3.org/2000/svg">
<mask id="path-1-outside-1_16_49" maskUnits="userSpaceOnUse" x="0" y="0" width="193" height="26" fill="black">
<rect fill="white" width="193" height="26"/>
<path d="M3.752 24L1.256 1.6H5.928L6.792 13.312L8.84 1.6H12.52L14.6 13.152L15.432 1.6H19.944L17.48 24H12.712L10.632 11.36L8.52 24H3.752ZM29.7875 24.352C28.1022 24.352 26.5768 23.904 25.2115 23.008C23.8462 22.112 22.7582 20.8107 21.9475 19.104C21.1582 17.376 20.7635 15.2747 20.7635 12.8C20.7635 10.3253 21.1582 8.23467 21.9475 6.528C22.7582 4.8 23.8462 3.488 25.2115 2.592C26.5768 1.696 28.1022 1.248 29.7875 1.248C31.4728 1.248 32.9982 1.696 34.3635 2.592C35.7288 3.488 36.8062 4.8 37.5955 6.528C38.4062 8.23467 38.8115 10.3253 38.8115 12.8C38.8115 15.2747 38.4062 17.376 37.5955 19.104C36.8062 20.8107 35.7288 22.112 34.3635 23.008C32.9982 23.904 31.4728 24.352 29.7875 24.352ZM29.7875 19.456C30.4488 19.456 31.0355 19.2213 31.5475 18.752C32.0808 18.2827 32.4968 17.5573 32.7955 16.576C33.1155 15.5947 33.2755 14.336 33.2755 12.8C33.2755 11.264 33.1155 10.0053 32.7955 9.024C32.4968 8.04267 32.0808 7.31733 31.5475 6.848C31.0355 6.37867 30.4488 6.144 29.7875 6.144C29.1262 6.144 28.5288 6.37867 27.9955 6.848C27.4835 7.31733 27.0675 8.04267 26.7475 9.024C26.4488 10.0053 26.2995 11.264 26.2995 12.8C26.2995 14.336 26.4488 15.5947 26.7475 16.576C27.0675 17.5573 27.4835 18.2827 27.9955 18.752C28.5288 19.2213 29.1262 19.456 29.7875 19.456ZM41.743 24V1.6H47.247V19.392H57.359V24H41.743ZM61.0905 24V1.6H76.5785V6.208H66.5945V10.624H73.0585V15.104H66.5945V24H61.0905ZM98.4095 24V1.6H103.914V10.304H109.162V1.6H114.666V24H109.162V15.136H103.914V24H98.4095ZM125.725 24.352C124.04 24.352 122.514 23.904 121.149 23.008C119.784 22.112 118.696 20.8107 117.885 19.104C117.096 17.376 116.701 15.2747 116.701 12.8C116.701 10.3253 117.096 8.23467 117.885 6.528C118.696 4.8 119.784 3.488 121.149 2.592C122.514 1.696 124.04 1.248 125.725 1.248C127.41 1.248 128.936 1.696 130.301 2.592C131.666 3.488 132.744 4.8 133.533 6.528C134.344 8.23467 134.749 10.3253 134.749 12.8C134.749 15.2747 134.344 17.376 133.533 19.104C132.744 20.8107 131.666 22.112 130.301 23.008C128.936 23.904 127.41 24.352 125.725 24.352ZM125.725 19.456C126.386 19.456 126.973 19.2213 127.485 18.752C128.018 18.2827 128.434 17.5573 128.733 16.576C129.053 15.5947 129.213 14.336 129.213 12.8C129.213 11.264 129.053 10.0053 128.733 9.024C128.434 8.04267 128.018 7.31733 127.485 6.848C126.973 6.37867 126.386 6.144 125.725 6.144C125.064 6.144 124.466 6.37867 123.933 6.848C123.421 7.31733 123.005 8.04267 122.685 9.024C122.386 10.0053 122.237 11.264 122.237 12.8C122.237 14.336 122.386 15.5947 122.685 16.576C123.005 17.5573 123.421 18.2827 123.933 18.752C124.466 19.2213 125.064 19.456 125.725 19.456ZM144.913 24.352C143.249 24.352 141.798 24.0107 140.561 23.328C139.323 22.6453 138.363 21.6853 137.681 20.448C136.998 19.2107 136.657 17.76 136.657 16.096V1.6H142.161V16.096C142.161 17.0987 142.406 17.9093 142.897 18.528C143.387 19.1253 144.059 19.424 144.913 19.424C145.766 19.424 146.438 19.1253 146.929 18.528C147.419 17.9093 147.665 17.0987 147.665 16.096V1.6H153.169V16.096C153.169 17.76 152.827 19.2107 152.145 20.448C151.462 21.6853 150.502 22.6453 149.265 23.328C148.049 24.0107 146.598 24.352 144.913 24.352ZM164.1 24.352C162.393 24.352 160.783 24.096 159.268 23.584C157.775 23.072 156.303 22.3253 154.852 21.344L157.54 17.216C158.969 18.1547 160.196 18.8373 161.22 19.264C162.244 19.6693 163.247 19.872 164.228 19.872C164.932 19.872 165.529 19.776 166.02 19.584C166.532 19.392 166.927 19.1253 167.204 18.784C167.481 18.4427 167.62 18.048 167.62 17.6C167.62 16.96 167.396 16.4693 166.948 16.128C166.5 15.7867 165.913 15.52 165.188 15.328C164.463 15.1147 163.663 14.9333 162.788 14.784C161.913 14.6133 161.039 14.4107 160.164 14.176C159.289 13.92 158.489 13.568 157.764 13.12C157.039 12.672 156.452 12.0747 156.004 11.328C155.556 10.56 155.332 9.568 155.332 8.352C155.332 6.88 155.673 5.62133 156.356 4.576C157.039 3.50933 158.02 2.688 159.3 2.112C160.601 1.536 162.159 1.248 163.972 1.248C165.615 1.248 167.193 1.49333 168.708 1.984C170.244 2.47467 171.556 3.15733 172.644 4.032L169.86 8.032C168.857 7.264 167.844 6.688 166.82 6.304C165.817 5.92 164.772 5.728 163.684 5.728C162.681 5.728 161.903 5.93067 161.348 6.336C160.793 6.74133 160.516 7.25333 160.516 7.872C160.516 8.448 160.74 8.896 161.188 9.216C161.636 9.51467 162.233 9.76 162.98 9.952C163.727 10.144 164.537 10.3253 165.412 10.496C166.308 10.6453 167.193 10.8587 168.068 11.136C168.964 11.392 169.785 11.7547 170.532 12.224C171.279 12.672 171.876 13.2907 172.324 14.08C172.772 14.8693 172.996 15.872 172.996 17.088C172.996 18.5173 172.633 19.7867 171.908 20.896C171.183 21.984 170.148 22.8373 168.804 23.456C167.481 24.0533 165.913 24.352 164.1 24.352ZM176.056 24V1.6H191.544V6.208H181.56V10.464H187.864V14.944H181.56V19.392H191.672V24H176.056Z"/>
</mask>
<path d="M3.752 24L1.256 1.6H5.928L6.792 13.312L8.84 1.6H12.52L14.6 13.152L15.432 1.6H19.944L17.48 24H12.712L10.632 11.36L8.52 24H3.752ZM29.7875 24.352C28.1022 24.352 26.5768 23.904 25.2115 23.008C23.8462 22.112 22.7582 20.8107 21.9475 19.104C21.1582 17.376 20.7635 15.2747 20.7635 12.8C20.7635 10.3253 21.1582 8.23467 21.9475 6.528C22.7582 4.8 23.8462 3.488 25.2115 2.592C26.5768 1.696 28.1022 1.248 29.7875 1.248C31.4728 1.248 32.9982 1.696 34.3635 2.592C35.7288 3.488 36.8062 4.8 37.5955 6.528C38.4062 8.23467 38.8115 10.3253 38.8115 12.8C38.8115 15.2747 38.4062 17.376 37.5955 19.104C36.8062 20.8107 35.7288 22.112 34.3635 23.008C32.9982 23.904 31.4728 24.352 29.7875 24.352ZM29.7875 19.456C30.4488 19.456 31.0355 19.2213 31.5475 18.752C32.0808 18.2827 32.4968 17.5573 32.7955 16.576C33.1155 15.5947 33.2755 14.336 33.2755 12.8C33.2755 11.264 33.1155 10.0053 32.7955 9.024C32.4968 8.04267 32.0808 7.31733 31.5475 6.848C31.0355 6.37867 30.4488 6.144 29.7875 6.144C29.1262 6.144 28.5288 6.37867 27.9955 6.848C27.4835 7.31733 27.0675 8.04267 26.7475 9.024C26.4488 10.0053 26.2995 11.264 26.2995 12.8C26.2995 14.336 26.4488 15.5947 26.7475 16.576C27.0675 17.5573 27.4835 18.2827 27.9955 18.752C28.5288 19.2213 29.1262 19.456 29.7875 19.456ZM41.743 24V1.6H47.247V19.392H57.359V24H41.743ZM61.0905 24V1.6H76.5785V6.208H66.5945V10.624H73.0585V15.104H66.5945V24H61.0905ZM98.4095 24V1.6H103.914V10.304H109.162V1.6H114.666V24H109.162V15.136H103.914V24H98.4095ZM125.725 24.352C124.04 24.352 122.514 23.904 121.149 23.008C119.784 22.112 118.696 20.8107 117.885 19.104C117.096 17.376 116.701 15.2747 116.701 12.8C116.701 10.3253 117.096 8.23467 117.885 6.528C118.696 4.8 119.784 3.488 121.149 2.592C122.514 1.696 124.04 1.248 125.725 1.248C127.41 1.248 128.936 1.696 130.301 2.592C131.666 3.488 132.744 4.8 133.533 6.528C134.344 8.23467 134.749 10.3253 134.749 12.8C134.749 15.2747 134.344 17.376 133.533 19.104C132.744 20.8107 131.666 22.112 130.301 23.008C128.936 23.904 127.41 24.352 125.725 24.352ZM125.725 19.456C126.386 19.456 126.973 19.2213 127.485 18.752C128.018 18.2827 128.434 17.5573 128.733 16.576C129.053 15.5947 129.213 14.336 129.213 12.8C129.213 11.264 129.053 10.0053 128.733 9.024C128.434 8.04267 128.018 7.31733 127.485 6.848C126.973 6.37867 126.386 6.144 125.725 6.144C125.064 6.144 124.466 6.37867 123.933 6.848C123.421 7.31733 123.005 8.04267 122.685 9.024C122.386 10.0053 122.237 11.264 122.237 12.8C122.237 14.336 122.386 15.5947 122.685 16.576C123.005 17.5573 123.421 18.2827 123.933 18.752C124.466 19.2213 125.064 19.456 125.725 19.456ZM144.913 24.352C143.249 24.352 141.798 24.0107 140.561 23.328C139.323 22.6453 138.363 21.6853 137.681 20.448C136.998 19.2107 136.657 17.76 136.657 16.096V1.6H142.161V16.096C142.161 17.0987 142.406 17.9093 142.897 18.528C143.387 19.1253 144.059 19.424 144.913 19.424C145.766 19.424 146.438 19.1253 146.929 18.528C147.419 17.9093 147.665 17.0987 147.665 16.096V1.6H153.169V16.096C153.169 17.76 152.827 19.2107 152.145 20.448C151.462 21.6853 150.502 22.6453 149.265 23.328C148.049 24.0107 146.598 24.352 144.913 24.352ZM164.1 24.352C162.393 24.352 160.783 24.096 159.268 23.584C157.775 23.072 156.303 22.3253 154.852 21.344L157.54 17.216C158.969 18.1547 160.196 18.8373 161.22 19.264C162.244 19.6693 163.247 19.872 164.228 19.872C164.932 19.872 165.529 19.776 166.02 19.584C166.532 19.392 166.927 19.1253 167.204 18.784C167.481 18.4427 167.62 18.048 167.62 17.6C167.62 16.96 167.396 16.4693 166.948 16.128C166.5 15.7867 165.913 15.52 165.188 15.328C164.463 15.1147 163.663 14.9333 162.788 14.784C161.913 14.6133 161.039 14.4107 160.164 14.176C159.289 13.92 158.489 13.568 157.764 13.12C157.039 12.672 156.452 12.0747 156.004 11.328C155.556 10.56 155.332 9.568 155.332 8.352C155.332 6.88 155.673 5.62133 156.356 4.576C157.039 3.50933 158.02 2.688 159.3 2.112C160.601 1.536 162.159 1.248 163.972 1.248C165.615 1.248 167.193 1.49333 168.708 1.984C170.244 2.47467 171.556 3.15733 172.644 4.032L169.86 8.032C168.857 7.264 167.844 6.688 166.82 6.304C165.817 5.92 164.772 5.728 163.684 5.728C162.681 5.728 161.903 5.93067 161.348 6.336C160.793 6.74133 160.516 7.25333 160.516 7.872C160.516 8.448 160.74 8.896 161.188 9.216C161.636 9.51467 162.233 9.76 162.98 9.952C163.727 10.144 164.537 10.3253 165.412 10.496C166.308 10.6453 167.193 10.8587 168.068 11.136C168.964 11.392 169.785 11.7547 170.532 12.224C171.279 12.672 171.876 13.2907 172.324 14.08C172.772 14.8693 172.996 15.872 172.996 17.088C172.996 18.5173 172.633 19.7867 171.908 20.896C171.183 21.984 170.148 22.8373 168.804 23.456C167.481 24.0533 165.913 24.352 164.1 24.352ZM176.056 24V1.6H191.544V6.208H181.56V10.464H187.864V14.944H181.56V19.392H191.672V24H176.056Z" fill="#F7F6F9"/>
<path d="M3.752 24L2.75815 24.1107L2.85724 25H3.752V24ZM1.256 1.6V0.599998H0.138382L0.262151 1.71074L1.256 1.6ZM5.928 1.6L6.92529 1.52643L6.85695 0.599998H5.928V1.6ZM6.792 13.312L5.79471 13.3856L7.77705 13.4842L6.792 13.312ZM8.84 1.6V0.599998H7.99969L7.85495 1.42775L8.84 1.6ZM12.52 1.6L13.5042 1.42279L13.356 0.599998H12.52V1.6ZM14.6 13.152L13.6158 13.3292L15.5974 13.2238L14.6 13.152ZM15.432 1.6V0.599998H14.5014L14.4346 1.52816L15.432 1.6ZM19.944 1.6L20.938 1.70934L21.06 0.599998H19.944V1.6ZM17.48 24V25H18.376L18.474 24.1093L17.48 24ZM12.712 24L11.7253 24.1624L11.8631 25H12.712V24ZM10.632 11.36L11.6187 11.1976L9.64567 11.1952L10.632 11.36ZM8.52 24V25H9.36678L9.50633 24.1648L8.52 24ZM3.752 24L4.74585 23.8893L2.24985 1.48926L1.256 1.6L0.262151 1.71074L2.75815 24.1107L3.752 24ZM1.256 1.6V2.6H5.928V1.6V0.599998H1.256V1.6ZM5.928 1.6L4.93071 1.67357L5.79471 13.3856L6.792 13.312L7.78929 13.2384L6.92529 1.52643L5.928 1.6ZM6.792 13.312L7.77705 13.4842L9.82505 1.77225L8.84 1.6L7.85495 1.42775L5.80695 13.1397L6.792 13.312ZM8.84 1.6V2.6H12.52V1.6V0.599998H8.84V1.6ZM12.52 1.6L11.5358 1.7772L13.6158 13.3292L14.6 13.152L15.5842 12.9748L13.5042 1.42279L12.52 1.6ZM14.6 13.152L15.5974 13.2238L16.4294 1.67183L15.432 1.6L14.4346 1.52816L13.6026 13.0802L14.6 13.152ZM15.432 1.6V2.6H19.944V1.6V0.599998H15.432V1.6ZM19.944 1.6L18.95 1.49066L16.486 23.8907L17.48 24L18.474 24.1093L20.938 1.70934L19.944 1.6ZM17.48 24V23H12.712V24V25H17.48V24ZM12.712 24L13.6987 23.8376L11.6187 11.1976L10.632 11.36L9.64527 11.5224L11.7253 24.1624L12.712 24ZM10.632 11.36L9.64567 11.1952L7.53367 23.8352L8.52 24L9.50633 24.1648L11.6183 11.5248L10.632 11.36ZM8.52 24V23H3.752V24V25H8.52V24ZM25.2115 23.008L24.6628 23.844L24.6628 23.844L25.2115 23.008ZM21.9475 19.104L21.0379 19.5195L21.041 19.5263L21.0442 19.5331L21.9475 19.104ZM21.9475 6.528L21.0422 6.10327L21.0399 6.10822L21.9475 6.528ZM25.2115 2.592L24.6628 1.75595L24.6628 1.75595L25.2115 2.592ZM37.5955 6.528L36.6859 6.94349L36.689 6.9503L36.6922 6.95706L37.5955 6.528ZM37.5955 19.104L36.6902 18.6793L36.6879 18.6842L37.5955 19.104ZM34.3635 23.008L34.9122 23.844L34.9122 23.844L34.3635 23.008ZM31.5475 18.752L30.8869 18.0013L30.8793 18.008L30.8718 18.0148L31.5475 18.752ZM32.7955 16.576L31.8448 16.266L31.8417 16.2754L31.8388 16.2848L32.7955 16.576ZM32.7955 9.024L31.8388 9.31516L31.8417 9.32462L31.8448 9.33402L32.7955 9.024ZM31.5475 6.848L30.8718 7.58515L30.8793 7.59201L30.8869 7.59871L31.5475 6.848ZM27.9955 6.848L27.3349 6.09729L27.3273 6.10399L27.3198 6.11085L27.9955 6.848ZM26.7475 9.024L25.7968 8.71398L25.7937 8.72338L25.7908 8.73284L26.7475 9.024ZM26.7475 16.576L25.7908 16.8672L25.7937 16.8766L25.7968 16.886L26.7475 16.576ZM27.9955 18.752L27.3198 19.4892L27.3273 19.496L27.3349 19.5027L27.9955 18.752ZM29.7875 24.352V23.352C28.2905 23.352 26.9571 22.9574 25.7602 22.172L25.2115 23.008L24.6628 23.844C26.1966 24.8506 27.9138 25.352 29.7875 25.352V24.352ZM25.2115 23.008L25.7602 22.172C24.5709 21.3915 23.5953 20.2424 22.8508 18.6749L21.9475 19.104L21.0442 19.5331C21.921 21.3789 23.1215 22.8325 24.6628 23.844L25.2115 23.008ZM21.9475 19.104L22.8571 18.6885C22.1425 17.1241 21.7635 15.1729 21.7635 12.8H20.7635H19.7635C19.7635 15.3765 20.1739 17.6279 21.0379 19.5195L21.9475 19.104ZM20.7635 12.8H21.7635C21.7635 10.4265 22.1427 8.48821 22.8551 6.94778L21.9475 6.528L21.0399 6.10822C20.1737 7.98112 19.7635 10.2241 19.7635 12.8H20.7635ZM21.9475 6.528L22.8528 6.95272C23.5984 5.36349 24.574 4.20648 25.7602 3.42805L25.2115 2.592L24.6628 1.75595C23.1184 2.76952 21.9179 4.23651 21.0422 6.10328L21.9475 6.528ZM25.2115 2.592L25.7602 3.42805C26.9571 2.64258 28.2905 2.248 29.7875 2.248V1.248V0.247999C27.9138 0.247999 26.1966 0.749422 24.6628 1.75595L25.2115 2.592ZM29.7875 1.248V2.248C31.2845 2.248 32.6179 2.64258 33.8148 3.42805L34.3635 2.592L34.9122 1.75595C33.3784 0.749422 31.6612 0.247999 29.7875 0.247999V1.248ZM34.3635 2.592L33.8148 3.42805C34.9983 4.20472 35.9618 5.35838 36.6859 6.94349L37.5955 6.528L38.5051 6.11251C37.6505 4.24162 36.4593 2.77128 34.9122 1.75595L34.3635 2.592ZM37.5955 6.528L36.6922 6.95706C37.4227 8.49485 37.8115 10.4297 37.8115 12.8H38.8115H39.8115C39.8115 10.221 39.3897 7.97448 38.4988 6.09894L37.5955 6.528ZM38.8115 12.8H37.8115C37.8115 15.1697 37.4229 17.1175 36.6902 18.6793L37.5955 19.104L38.5008 19.5287C39.3895 17.6345 39.8115 15.3796 39.8115 12.8H38.8115ZM37.5955 19.104L36.6879 18.6842C35.9648 20.2475 35.0015 21.3932 33.8148 22.172L34.3635 23.008L34.9122 23.844C36.4562 22.8308 37.6475 21.3738 38.5031 19.5238L37.5955 19.104ZM34.3635 23.008L33.8148 22.172C32.6179 22.9574 31.2845 23.352 29.7875 23.352V24.352V25.352C31.6612 25.352 33.3784 24.8506 34.9122 23.844L34.3635 23.008ZM29.7875 19.456V20.456C30.7125 20.456 31.537 20.1182 32.2232 19.4892L31.5475 18.752L30.8718 18.0148C30.534 18.3244 30.1852 18.456 29.7875 18.456V19.456ZM31.5475 18.752L32.2081 19.5027C32.9297 18.8678 33.4221 17.9517 33.7522 16.8672L32.7955 16.576L31.8388 16.2848C31.5716 17.163 31.232 17.6976 30.8869 18.0013L31.5475 18.752ZM32.7955 16.576L33.7462 16.886C34.1106 15.7685 34.2755 14.3951 34.2755 12.8H33.2755H32.2755C32.2755 14.2769 32.1204 15.4208 31.8448 16.266L32.7955 16.576ZM33.2755 12.8H34.2755C34.2755 11.2049 34.1106 9.83149 33.7462 8.71398L32.7955 9.024L31.8448 9.33402C32.1204 10.1792 32.2755 11.3231 32.2755 12.8H33.2755ZM32.7955 9.024L33.7522 8.73284C33.4221 7.64835 32.9297 6.73225 32.2081 6.09729L31.5475 6.848L30.8869 7.59871C31.232 7.90242 31.5716 8.43699 31.8388 9.31516L32.7955 9.024ZM31.5475 6.848L32.2232 6.11085C31.537 5.48178 30.7125 5.144 29.7875 5.144V6.144V7.144C30.1852 7.144 30.534 7.27555 30.8718 7.58515L31.5475 6.848ZM29.7875 6.144V5.144C28.8641 5.144 28.0361 5.48023 27.3349 6.09729L27.9955 6.848L28.6561 7.59871C29.0216 7.2771 29.3883 7.144 29.7875 7.144V6.144ZM27.9955 6.848L27.3198 6.11085C26.6338 6.73961 26.1461 7.64275 25.7968 8.71398L26.7475 9.024L27.6982 9.33402C27.9889 8.44259 28.3332 7.89505 28.6712 7.58515L27.9955 6.848ZM26.7475 9.024L25.7908 8.73284C25.453 9.84296 25.2995 11.2092 25.2995 12.8H26.2995H27.2995C27.2995 11.3187 27.4447 10.1677 27.7042 9.31516L26.7475 9.024ZM26.2995 12.8H25.2995C25.2995 14.3907 25.453 15.757 25.7908 16.8672L26.7475 16.576L27.7042 16.2848C27.4447 15.4323 27.2995 14.2812 27.2995 12.8H26.2995ZM26.7475 16.576L25.7968 16.886C26.1461 17.9573 26.6338 18.8604 27.3198 19.4892L27.9955 18.752L28.6712 18.0148C28.3332 17.7049 27.9889 17.1574 27.6982 16.266L26.7475 16.576ZM27.9955 18.752L27.3349 19.5027C28.0361 20.1198 28.8641 20.456 29.7875 20.456V19.456V18.456C29.3883 18.456 29.0216 18.3229 28.6561 18.0013L27.9955 18.752ZM41.743 24H40.743V25H41.743V24ZM41.743 1.6V0.599998H40.743V1.6H41.743ZM47.247 1.6H48.247V0.599998H47.247V1.6ZM47.247 19.392H46.247V20.392H47.247V19.392ZM57.359 19.392H58.359V18.392H57.359V19.392ZM57.359 24V25H58.359V24H57.359ZM41.743 24H42.743V1.6H41.743H40.743V24H41.743ZM41.743 1.6V2.6H47.247V1.6V0.599998H41.743V1.6ZM47.247 1.6H46.247V19.392H47.247H48.247V1.6H47.247ZM47.247 19.392V20.392H57.359V19.392V18.392H47.247V19.392ZM57.359 19.392H56.359V24H57.359H58.359V19.392H57.359ZM57.359 24V23H41.743V24V25H57.359V24ZM61.0905 24H60.0905V25H61.0905V24ZM61.0905 1.6V0.599998H60.0905V1.6H61.0905ZM76.5785 1.6H77.5785V0.599998H76.5785V1.6ZM76.5785 6.208V7.208H77.5785V6.208H76.5785ZM66.5945 6.208V5.208H65.5945V6.208H66.5945ZM66.5945 10.624H65.5945V11.624H66.5945V10.624ZM73.0585 10.624H74.0585V9.624H73.0585V10.624ZM73.0585 15.104V16.104H74.0585V15.104H73.0585ZM66.5945 15.104V14.104H65.5945V15.104H66.5945ZM66.5945 24V25H67.5945V24H66.5945ZM61.0905 24H62.0905V1.6H61.0905H60.0905V24H61.0905ZM61.0905 1.6V2.6H76.5785V1.6V0.599998H61.0905V1.6ZM76.5785 1.6H75.5785V6.208H76.5785H77.5785V1.6H76.5785ZM76.5785 6.208V5.208H66.5945V6.208V7.208H76.5785V6.208ZM66.5945 6.208H65.5945V10.624H66.5945H67.5945V6.208H66.5945ZM66.5945 10.624V11.624H73.0585V10.624V9.624H66.5945V10.624ZM73.0585 10.624H72.0585V15.104H73.0585H74.0585V10.624H73.0585ZM73.0585 15.104V14.104H66.5945V15.104V16.104H73.0585V15.104ZM66.5945 15.104H65.5945V24H66.5945H67.5945V15.104H66.5945ZM66.5945 24V23H61.0905V24V25H66.5945V24ZM98.4095 24H97.4095V25H98.4095V24ZM98.4095 1.6V0.599998H97.4095V1.6H98.4095ZM103.914 1.6H104.914V0.599998H103.914V1.6ZM103.914 10.304H102.914V11.304H103.914V10.304ZM109.162 10.304V11.304H110.162V10.304H109.162ZM109.162 1.6V0.599998H108.162V1.6H109.162ZM114.666 1.6H115.666V0.599998H114.666V1.6ZM114.666 24V25H115.666V24H114.666ZM109.162 24H108.162V25H109.162V24ZM109.162 15.136H110.162V14.136H109.162V15.136ZM103.914 15.136V14.136H102.914V15.136H103.914ZM103.914 24V25H104.914V24H103.914ZM98.4095 24H99.4095V1.6H98.4095H97.4095V24H98.4095ZM98.4095 1.6V2.6H103.914V1.6V0.599998H98.4095V1.6ZM103.914 1.6H102.914V10.304H103.914H104.914V1.6H103.914ZM103.914 10.304V11.304H109.162V10.304V9.304H103.914V10.304ZM109.162 10.304H110.162V1.6H109.162H108.162V10.304H109.162ZM109.162 1.6V2.6H114.666V1.6V0.599998H109.162V1.6ZM114.666 1.6H113.666V24H114.666H115.666V1.6H114.666ZM114.666 24V23H109.162V24V25H114.666V24ZM109.162 24H110.162V15.136H109.162H108.162V24H109.162ZM109.162 15.136V14.136H103.914V15.136V16.136H109.162V15.136ZM103.914 15.136H102.914V24H103.914H104.914V15.136H103.914ZM103.914 24V23H98.4095V24V25H103.914V24ZM121.149 23.008L120.6 23.844L120.6 23.844L121.149 23.008ZM117.885 19.104L116.975 19.5195L116.979 19.5263L116.982 19.5331L117.885 19.104ZM117.885 6.528L116.98 6.10327L116.977 6.10822L117.885 6.528ZM121.149 2.592L120.6 1.75595L120.6 1.75595L121.149 2.592ZM133.533 6.528L132.623 6.94349L132.627 6.9503L132.63 6.95706L133.533 6.528ZM133.533 19.104L132.628 18.6793L132.625 18.6842L133.533 19.104ZM130.301 23.008L130.85 23.844L130.85 23.844L130.301 23.008ZM127.485 18.752L126.824 18.0013L126.817 18.008L126.809 18.0148L127.485 18.752ZM128.733 16.576L127.782 16.266L127.779 16.2754L127.776 16.2848L128.733 16.576ZM128.733 9.024L127.776 9.31516L127.779 9.32462L127.782 9.33402L128.733 9.024ZM127.485 6.848L126.809 7.58515L126.817 7.59201L126.824 7.59871L127.485 6.848ZM123.933 6.848L123.272 6.09729L123.265 6.10399L123.257 6.11085L123.933 6.848ZM122.685 9.024L121.734 8.71398L121.731 8.72338L121.728 8.73284L122.685 9.024ZM122.685 16.576L121.728 16.8672L121.731 16.8766L121.734 16.886L122.685 16.576ZM123.933 18.752L123.257 19.4892L123.265 19.496L123.272 19.5027L123.933 18.752ZM125.725 24.352V23.352C124.228 23.352 122.895 22.9574 121.698 22.172L121.149 23.008L120.6 23.844C122.134 24.8506 123.851 25.352 125.725 25.352V24.352ZM121.149 23.008L121.698 22.172C120.508 21.3915 119.533 20.2424 118.788 18.6749L117.885 19.104L116.982 19.5331C117.858 21.3789 119.059 22.8325 120.6 23.844L121.149 23.008ZM117.885 19.104L118.795 18.6885C118.08 17.1241 117.701 15.1729 117.701 12.8H116.701H115.701C115.701 15.3765 116.111 17.6279 116.975 19.5195L117.885 19.104ZM116.701 12.8H117.701C117.701 10.4265 118.08 8.48821 118.793 6.94778L117.885 6.528L116.977 6.10822C116.111 7.98112 115.701 10.2241 115.701 12.8H116.701ZM117.885 6.528L118.79 6.95272C119.536 5.36349 120.511 4.20648 121.698 3.42805L121.149 2.592L120.6 1.75595C119.056 2.76952 117.855 4.23651 116.98 6.10328L117.885 6.528ZM121.149 2.592L121.698 3.42805C122.895 2.64258 124.228 2.248 125.725 2.248V1.248V0.247999C123.851 0.247999 122.134 0.749422 120.6 1.75595L121.149 2.592ZM125.725 1.248V2.248C127.222 2.248 128.555 2.64258 129.752 3.42805L130.301 2.592L130.85 1.75595C129.316 0.749422 127.599 0.247999 125.725 0.247999V1.248ZM130.301 2.592L129.752 3.42805C130.936 4.20472 131.899 5.35838 132.623 6.94349L133.533 6.528L134.443 6.11251C133.588 4.24162 132.397 2.77128 130.85 1.75595L130.301 2.592ZM133.533 6.528L132.63 6.95706C133.36 8.49485 133.749 10.4297 133.749 12.8H134.749H135.749C135.749 10.221 135.327 7.97448 134.436 6.09894L133.533 6.528ZM134.749 12.8H133.749C133.749 15.1697 133.36 17.1175 132.628 18.6793L133.533 19.104L134.438 19.5287C135.327 17.6345 135.749 15.3796 135.749 12.8H134.749ZM133.533 19.104L132.625 18.6842C131.902 20.2475 130.939 21.3932 129.752 22.172L130.301 23.008L130.85 23.844C132.394 22.8308 133.585 21.3738 134.441 19.5238L133.533 19.104ZM130.301 23.008L129.752 22.172C128.555 22.9574 127.222 23.352 125.725 23.352V24.352V25.352C127.599 25.352 129.316 24.8506 130.85 23.844L130.301 23.008ZM125.725 19.456V20.456C126.65 20.456 127.474 20.1182 128.161 19.4892L127.485 18.752L126.809 18.0148C126.472 18.3244 126.123 18.456 125.725 18.456V19.456ZM127.485 18.752L128.146 19.5027C128.867 18.8678 129.36 17.9517 129.69 16.8672L128.733 16.576L127.776 16.2848C127.509 17.163 127.169 17.6976 126.824 18.0013L127.485 18.752ZM128.733 16.576L129.684 16.886C130.048 15.7685 130.213 14.3951 130.213 12.8H129.213H128.213C128.213 14.2769 128.058 15.4208 127.782 16.266L128.733 16.576ZM129.213 12.8H130.213C130.213 11.2049 130.048 9.83149 129.684 8.71398L128.733 9.024L127.782 9.33402C128.058 10.1792 128.213 11.3231 128.213 12.8H129.213ZM128.733 9.024L129.69 8.73284C129.36 7.64835 128.867 6.73225 128.146 6.09729L127.485 6.848L126.824 7.59871C127.169 7.90242 127.509 8.43699 127.776 9.31516L128.733 9.024ZM127.485 6.848L128.161 6.11085C127.474 5.48178 126.65 5.144 125.725 5.144V6.144V7.144C126.123 7.144 126.472 7.27555 126.809 7.58515L127.485 6.848ZM125.725 6.144V5.144C124.802 5.144 123.974 5.48023 123.272 6.09729L123.933 6.848L124.594 7.59871C124.959 7.2771 125.326 7.144 125.725 7.144V6.144ZM123.933 6.848L123.257 6.11085C122.571 6.73961 122.084 7.64275 121.734 8.71398L122.685 9.024L123.636 9.33402C123.926 8.44259 124.271 7.89505 124.609 7.58515L123.933 6.848ZM122.685 9.024L121.728 8.73284C121.39 9.84296 121.237 11.2092 121.237 12.8H122.237H123.237C123.237 11.3187 123.382 10.1677 123.642 9.31516L122.685 9.024ZM122.237 12.8H121.237C121.237 14.3907 121.39 15.757 121.728 16.8672L122.685 16.576L123.642 16.2848C123.382 15.4323 123.237 14.2812 123.237 12.8H122.237ZM122.685 16.576L121.734 16.886C122.084 17.9573 122.571 18.8604 123.257 19.4892L123.933 18.752L124.609 18.0148C124.271 17.7049 123.926 17.1574 123.636 16.266L122.685 16.576ZM123.933 18.752L123.272 19.5027C123.974 20.1198 124.802 20.456 125.725 20.456V19.456V18.456C125.326 18.456 124.959 18.3229 124.594 18.0013L123.933 18.752ZM140.561 23.328L140.077 24.2036L140.077 24.2036L140.561 23.328ZM137.681 20.448L136.805 20.9311L136.805 20.9311L137.681 20.448ZM136.657 1.6V0.599998H135.657V1.6H136.657ZM142.161 1.6H143.161V0.599998H142.161V1.6ZM142.897 18.528L142.113 19.1494L142.118 19.1561L142.124 19.1627L142.897 18.528ZM146.929 18.528L147.701 19.1627L147.707 19.1561L147.712 19.1494L146.929 18.528ZM147.665 1.6V0.599998H146.665V1.6H147.665ZM153.169 1.6H154.169V0.599998H153.169V1.6ZM149.265 23.328L148.781 22.4524L148.775 22.456L149.265 23.328ZM144.913 24.352V23.352C143.387 23.352 142.109 23.0401 141.044 22.4524L140.561 23.328L140.077 24.2036C141.487 24.9813 143.11 25.352 144.913 25.352V24.352ZM140.561 23.328L141.044 22.4524C139.971 21.8609 139.148 21.037 138.556 19.9649L137.681 20.448L136.805 20.9311C137.579 22.3337 138.675 23.4297 140.077 24.2036L140.561 23.328ZM137.681 20.448L138.556 19.9649C137.968 18.8998 137.657 17.6211 137.657 16.096H136.657H135.657C135.657 17.8989 136.027 19.5215 136.805 20.9311L137.681 20.448ZM136.657 16.096H137.657V1.6H136.657H135.657V16.096H136.657ZM136.657 1.6V2.6H142.161V1.6V0.599998H136.657V1.6ZM142.161 1.6H141.161V16.096H142.161H143.161V1.6H142.161ZM142.161 16.096H141.161C141.161 17.2624 141.448 18.3109 142.113 19.1494L142.897 18.528L143.68 17.9066C143.364 17.5078 143.161 16.9349 143.161 16.096H142.161ZM142.897 18.528L142.124 19.1627C142.826 20.0173 143.795 20.424 144.913 20.424V19.424V18.424C144.323 18.424 143.949 18.2334 143.669 17.8933L142.897 18.528ZM144.913 19.424V20.424C146.03 20.424 146.999 20.0173 147.701 19.1627L146.929 18.528L146.156 17.8933C145.876 18.2334 145.502 18.424 144.913 18.424V19.424ZM146.929 18.528L147.712 19.1494C148.377 18.3109 148.665 17.2624 148.665 16.096H147.665H146.665C146.665 16.9349 146.461 17.5078 146.145 17.9066L146.929 18.528ZM147.665 16.096H148.665V1.6H147.665H146.665V16.096H147.665ZM147.665 1.6V2.6H153.169V1.6V0.599998H147.665V1.6ZM153.169 1.6H152.169V16.096H153.169H154.169V1.6H153.169ZM153.169 16.096H152.169C152.169 17.6211 151.857 18.8998 151.269 19.9649L152.145 20.448L153.02 20.9311C153.798 19.5215 154.169 17.8989 154.169 16.096H153.169ZM152.145 20.448L151.269 19.9649C150.677 21.037 149.854 21.8609 148.781 22.4524L149.265 23.328L149.748 24.2036C151.15 23.4297 152.246 22.3337 153.02 20.9311L152.145 20.448ZM149.265 23.328L148.775 22.456C147.737 23.0389 146.462 23.352 144.913 23.352V24.352V25.352C146.734 25.352 148.36 24.9825 149.754 24.2L149.265 23.328ZM159.268 23.584L158.944 24.53L158.948 24.5313L159.268 23.584ZM154.852 21.344L154.014 20.7983L153.478 21.6217L154.292 22.1723L154.852 21.344ZM157.54 17.216L158.089 16.3801L157.25 15.8291L156.702 16.6703L157.54 17.216ZM161.22 19.264L160.835 20.1871L160.844 20.1905L160.852 20.1938L161.22 19.264ZM166.02 19.584L165.669 18.6477L165.662 18.6502L165.656 18.6528L166.02 19.584ZM166.948 16.128L166.342 16.9234L166.342 16.9234L166.948 16.128ZM165.188 15.328L164.906 16.2874L164.919 16.2912L164.932 16.2947L165.188 15.328ZM162.788 14.784L162.596 15.7655L162.608 15.7677L162.62 15.7697L162.788 14.784ZM160.164 14.176L159.883 15.1357L159.894 15.1389L159.905 15.1418L160.164 14.176ZM157.764 13.12L157.239 13.9708L157.239 13.9708L157.764 13.12ZM156.004 11.328L155.14 11.8319L155.147 11.8425L156.004 11.328ZM156.356 4.576L157.193 5.12281L157.198 5.11505L156.356 4.576ZM159.3 2.112L158.895 1.19755L158.89 1.20008L159.3 2.112ZM168.708 1.984L168.4 2.93534L168.404 2.93658L168.708 1.984ZM172.644 4.032L173.465 4.60326L173.998 3.83732L173.271 3.25262L172.644 4.032ZM169.86 8.032L169.252 8.82588L170.083 9.46233L170.681 8.60326L169.86 8.032ZM166.82 6.304L166.462 7.23788L166.469 7.24033L166.82 6.304ZM161.348 6.336L161.938 7.14339L161.938 7.14339L161.348 6.336ZM161.188 9.216L160.607 10.0297L160.62 10.0391L160.633 10.048L161.188 9.216ZM162.98 9.952L163.229 8.98351L163.229 8.98351L162.98 9.952ZM165.412 10.496L165.22 11.4775L165.234 11.4801L165.248 11.4824L165.412 10.496ZM168.068 11.136L167.766 12.0892L167.779 12.0936L167.793 12.0975L168.068 11.136ZM170.532 12.224L170 13.0706L170.009 13.0762L170.018 13.0815L170.532 12.224ZM172.324 14.08L173.194 13.5864L173.194 13.5864L172.324 14.08ZM171.908 20.896L172.74 21.4507L172.745 21.4432L171.908 20.896ZM168.804 23.456L169.216 24.3674L169.222 24.3644L168.804 23.456ZM164.1 24.352V23.352C162.495 23.352 160.993 23.1115 159.588 22.6367L159.268 23.584L158.948 24.5313C160.572 25.0805 162.292 25.352 164.1 25.352V24.352ZM159.268 23.584L159.592 22.6381C158.191 22.1576 156.798 21.4529 155.412 20.5157L154.852 21.344L154.292 22.1723C155.808 23.1977 157.358 23.9864 158.944 24.5299L159.268 23.584ZM154.852 21.344L155.69 21.8897L158.378 17.7617L157.54 17.216L156.702 16.6703L154.014 20.7983L154.852 21.344ZM157.54 17.216L156.991 18.0519C158.448 19.0085 159.732 19.7274 160.835 20.1871L161.22 19.264L161.605 18.3409C160.66 17.9473 159.491 17.3009 158.089 16.3801L157.54 17.216ZM161.22 19.264L160.852 20.1938C161.979 20.6399 163.106 20.872 164.228 20.872V19.872V18.872C163.387 18.872 162.509 18.6988 161.588 18.3342L161.22 19.264ZM164.228 19.872V20.872C165.017 20.872 165.746 20.7651 166.384 20.5152L166.02 19.584L165.656 18.6528C165.313 18.7869 164.847 18.872 164.228 18.872V19.872ZM166.02 19.584L166.371 20.5203C167.009 20.281 167.567 19.9236 167.98 19.4146L167.204 18.784L166.428 18.1534C166.287 18.3271 166.055 18.503 165.669 18.6477L166.02 19.584ZM167.204 18.784L167.98 19.4146C168.405 18.8914 168.62 18.273 168.62 17.6H167.62H166.62C166.62 17.823 166.557 17.9939 166.428 18.1534L167.204 18.784ZM167.62 17.6H168.62C168.62 16.6964 168.286 15.8906 167.554 15.3326L166.948 16.128L166.342 16.9234C166.506 17.048 166.62 17.2236 166.62 17.6H167.62ZM166.948 16.128L167.554 15.3326C166.973 14.8901 166.256 14.5763 165.444 14.3613L165.188 15.328L164.932 16.2947C165.57 16.4637 166.027 16.6833 166.342 16.9234L166.948 16.128ZM165.188 15.328L165.47 14.3686C164.702 14.1426 163.863 13.9531 162.956 13.7983L162.788 14.784L162.62 15.7697C163.462 15.9136 164.224 16.0867 164.906 16.2874L165.188 15.328ZM162.788 14.784L162.98 13.8025C162.128 13.6363 161.276 13.4389 160.423 13.2102L160.164 14.176L159.905 15.1418C160.802 15.3824 161.699 15.5903 162.596 15.7655L162.788 14.784ZM160.164 14.176L160.445 13.2163C159.65 12.9837 158.933 12.667 158.289 12.2692L157.764 13.12L157.239 13.9708C158.045 14.469 158.928 14.8563 159.883 15.1357L160.164 14.176ZM157.764 13.12L158.289 12.2692C157.703 11.907 157.229 11.4262 156.861 10.8135L156.004 11.328L155.147 11.8425C155.675 12.7231 156.374 13.437 157.239 13.9708L157.764 13.12ZM156.004 11.328L156.868 10.8241C156.536 10.2552 156.332 9.45337 156.332 8.352H155.332H154.332C154.332 9.68263 154.576 10.8648 155.14 11.8319L156.004 11.328ZM155.332 8.352H156.332C156.332 7.0388 156.635 5.97823 157.193 5.12279L156.356 4.576L155.519 4.02921C154.712 5.26444 154.332 6.7212 154.332 8.352H155.332ZM156.356 4.576L157.198 5.11505C157.765 4.22944 158.588 3.52917 159.71 3.02392L159.3 2.112L158.89 1.20008C157.452 1.84683 156.312 2.78922 155.514 4.03694L156.356 4.576ZM159.3 2.112L159.705 3.02643C160.849 2.52006 162.261 2.248 163.972 2.248V1.248V0.247999C162.056 0.247999 160.354 0.551938 158.895 1.19757L159.3 2.112ZM163.972 1.248V2.248C165.513 2.248 166.988 2.47793 168.4 2.93533L168.708 1.984L169.016 1.03267C167.399 0.508738 165.716 0.247999 163.972 0.247999V1.248ZM168.708 1.984L168.404 2.93658C169.84 3.39554 171.039 4.02474 172.017 4.81138L172.644 4.032L173.271 3.25262C172.073 2.28993 170.648 1.55379 169.012 1.03142L168.708 1.984ZM172.644 4.032L171.823 3.46074L169.039 7.46074L169.86 8.032L170.681 8.60326L173.465 4.60326L172.644 4.032ZM169.86 8.032L170.468 7.23812C169.399 6.41931 168.3 5.79111 167.171 5.36767L166.82 6.304L166.469 7.24033C167.388 7.58488 168.316 8.10869 169.252 8.82588L169.86 8.032ZM166.82 6.304L167.178 5.37014C166.059 4.94183 164.893 4.728 163.684 4.728V5.728V6.728C164.651 6.728 165.575 6.89817 166.462 7.23786L166.82 6.304ZM163.684 5.728V4.728C162.563 4.728 161.546 4.95244 160.758 5.52861L161.348 6.336L161.938 7.14339C162.259 6.90889 162.8 6.728 163.684 6.728V5.728ZM161.348 6.336L160.758 5.52861C159.979 6.09819 159.516 6.89552 159.516 7.872H160.516H161.516C161.516 7.61114 161.608 7.38448 161.938 7.14339L161.348 6.336ZM160.516 7.872H159.516C159.516 8.75332 159.882 9.512 160.607 10.0297L161.188 9.216L161.769 8.40227C161.598 8.28 161.516 8.14268 161.516 7.872H160.516ZM161.188 9.216L160.633 10.048C161.206 10.4296 161.918 10.7116 162.731 10.9205L162.98 9.952L163.229 8.98351C162.548 8.80844 162.066 8.59969 161.743 8.38395L161.188 9.216ZM162.98 9.952L162.731 10.9205C163.499 11.1181 164.329 11.3036 165.22 11.4775L165.412 10.496L165.604 9.51451C164.745 9.34704 163.954 9.16993 163.229 8.98351L162.98 9.952ZM165.412 10.496L165.248 11.4824C166.096 11.6239 166.936 11.8261 167.766 12.0892L168.068 11.136L168.37 10.1828C167.451 9.89128 166.52 9.6668 165.576 9.50961L165.412 10.496ZM168.068 11.136L167.793 12.0975C168.604 12.329 169.338 12.6543 170 13.0706L170.532 12.224L171.064 11.3774C170.233 10.855 169.324 10.455 168.343 10.1745L168.068 11.136ZM170.532 12.224L170.018 13.0815C170.61 13.437 171.088 13.9275 171.454 14.5736L172.324 14.08L173.194 13.5864C172.664 12.6538 171.947 11.907 171.046 11.3665L170.532 12.224ZM172.324 14.08L171.454 14.5736C171.793 15.1698 171.996 15.9884 171.996 17.088H172.996H173.996C173.996 15.7556 173.751 14.5688 173.194 13.5864L172.324 14.08ZM172.996 17.088H171.996C171.996 18.3389 171.682 19.4149 171.071 20.3488L171.908 20.896L172.745 21.4432C173.585 20.1584 173.996 18.6958 173.996 17.088H172.996ZM171.908 20.896L171.076 20.3413C170.466 21.2559 169.584 21.9959 168.386 22.5476L168.804 23.456L169.222 24.3644C170.712 23.6788 171.899 22.7121 172.74 21.4507L171.908 20.896ZM168.804 23.456L168.392 22.5446C167.227 23.0709 165.806 23.352 164.1 23.352V24.352V25.352C166.021 25.352 167.736 25.0358 169.216 24.3674L168.804 23.456ZM176.056 24H175.056V25H176.056V24ZM176.056 1.6V0.599998H175.056V1.6H176.056ZM191.544 1.6H192.544V0.599998H191.544V1.6ZM191.544 6.208V7.208H192.544V6.208H191.544ZM181.56 6.208V5.208H180.56V6.208H181.56ZM181.56 10.464H180.56V11.464H181.56V10.464ZM187.864 10.464H188.864V9.464H187.864V10.464ZM187.864 14.944V15.944H188.864V14.944H187.864ZM181.56 14.944V13.944H180.56V14.944H181.56ZM181.56 19.392H180.56V20.392H181.56V19.392ZM191.672 19.392H192.672V18.392H191.672V19.392ZM191.672 24V25H192.672V24H191.672ZM176.056 24H177.056V1.6H176.056H175.056V24H176.056ZM176.056 1.6V2.6H191.544V1.6V0.599998H176.056V1.6ZM191.544 1.6H190.544V6.208H191.544H192.544V1.6H191.544ZM191.544 6.208V5.208H181.56V6.208V7.208H191.544V6.208ZM181.56 6.208H180.56V10.464H181.56H182.56V6.208H181.56ZM181.56 10.464V11.464H187.864V10.464V9.464H181.56V10.464ZM187.864 10.464H186.864V14.944H187.864H188.864V10.464H187.864ZM187.864 14.944V13.944H181.56V14.944V15.944H187.864V14.944ZM181.56 14.944H180.56V19.392H181.56H182.56V14.944H181.56ZM181.56 19.392V20.392H191.672V19.392V18.392H181.56V19.392ZM191.672 19.392H190.672V24H191.672H192.672V19.392H191.672ZM191.672 24V23H176.056V24V25H191.672V24Z" fill="black" mask="url(#path-1-outside-1_16_49)"/>
</svg>
